<?xml version="1.0" standalone="no"?>
<!DOCTYPE svg PUBLIC "-//W3C//DTD SVG 20010904//EN"
 "http://www.w3.org/TR/2001/REC-SVG-20010904/DTD/svg10.dtd">
<svg version="1.0" xmlns="http://www.w3.org/2000/svg"
 width="372.000000pt" height="372.000000pt" viewBox="0 0 372.000000 372.000000"
 preserveAspectRatio="xMidYMid meet">
<metadata>
Created by potrace 1.14, written by Peter Selinger 2001-2017
</metadata>
<g transform="translate(0.000000,372.000000) scale(0.100000,-0.100000)"
fill="#000000" stroke="none">
<path d="M1707 3713 c-1 -1 -59 -3 -129 -5 -71 -1 -128 -5 -128 -8 0 -4 -37
-11 -83 -18 -113 -16 -198 -40 -211 -58 -16 -22 -15 -549 1 -565 9 -9 20 -9
43 0 18 6 37 8 43 4 5 -3 7 -2 4 4 -3 5 32 19 83 33 113 29 125 37 126 92 6
172 9 208 19 209 5 0 19 2 30 5 11 2 59 5 107 6 48 2 88 7 88 11 0 4 9 3 19
-3 14 -7 22 -7 26 0 4 6 10 8 14 5 5 -2 42 -7 82 -10 67 -5 114 -11 114 -15 0
-1 16 -3 35 -5 58 -5 107 -15 193 -41 90 -28 106 -32 125 -33 7 -1 11 -5 8
-10 -4 -5 1 -8 11 -7 9 2 33 -6 54 -16 21 -10 45 -18 54 -18 8 0 15 -5 15 -11
0 -5 5 -7 10 -4 6 3 10 1 10 -5 0 -6 4 -9 9 -6 4 3 19 -3 31 -14 12 -11 27
-17 31 -14 5 3 12 -2 15 -10 3 -9 9 -14 14 -11 4 2 28 -9 54 -25 26 -17 49
-30 53 -30 3 0 14 -10 24 -22 11 -11 19 -17 19 -12 0 5 4 4 8 -2 4 -5 18 -17
31 -26 22 -16 120 -101 187 -164 18 -18 30 -34 27 -38 -4 -3 -2 -6 4 -6 5 0
34 -30 63 -67 30 -38 58 -69 62 -71 4 -2 8 -9 8 -17 0 -7 7 -18 15 -25 9 -7
13 -15 11 -17 -3 -3 3 -13 12 -24 9 -10 31 -44 47 -76 17 -32 34 -61 38 -64 5
-3 9 -10 9 -15 0 -5 7 -25 15 -44 8 -19 16 -39 17 -45 1 -5 4 -14 8 -20 7 -13
22 -78 20 -87 -1 -5 3 -8 9 -8 6 0 9 -6 6 -14 -3 -7 -1 -18 3 -22 5 -5 11 -25
12 -44 2 -19 6 -38 11 -41 4 -3 9 -23 12 -45 2 -21 7 -50 10 -64 10 -38 17
-352 8 -347 -4 3 -9 -20 -9 -51 -1 -56 -9 -103 -21 -132 -3 -8 -5 -23 -4 -32
1 -10 -2 -18 -6 -18 -5 0 -9 -8 -10 -17 -5 -80 -133 -368 -190 -431 -7 -7 -13
-19 -13 -27 0 -7 -4 -15 -8 -17 -5 -1 -27 -28 -49 -58 -40 -55 -107 -126 -197
-207 -27 -25 -46 -52 -47 -65 -5 -90 -3 -288 2 -288 4 0 9 -9 12 -20 7 -28 27
-25 65 10 18 16 36 30 40 30 4 0 22 14 40 31 17 16 32 28 32 26 0 -6 82 67
145 128 28 28 90 100 138 160 48 61 96 120 108 133 11 12 17 22 14 22 -3 0 8
20 25 44 16 25 30 49 30 55 0 6 5 11 12 11 6 0 8 3 5 7 -4 3 0 17 8 30 9 13
13 23 10 23 -4 0 1 7 9 16 9 8 14 20 11 25 -4 5 -1 9 4 9 6 0 11 4 11 9 0 5
10 30 22 57 12 27 23 51 23 54 10 38 18 60 24 60 4 0 7 8 8 18 2 24 12 67 23
97 5 14 7 25 5 25 -2 0 0 12 6 27 5 14 12 47 15 72 2 25 7 57 11 71 12 47 17
348 8 430 -6 47 -15 110 -20 140 -3 14 -8 41 -11 60 -3 19 -10 43 -15 53 -5 9
-8 17 -5 17 3 0 -4 25 -14 55 -10 30 -16 55 -13 55 3 0 1 6 -4 13 -5 6 -16 32
-23 57 -7 25 -20 52 -27 61 -8 9 -13 20 -11 25 1 5 -10 32 -25 60 -14 28 -23
54 -20 58 4 3 1 6 -6 6 -7 0 -19 16 -27 36 -19 46 -63 114 -88 137 -10 9 -16
17 -12 17 4 0 1 6 -6 13 -7 8 -24 29 -38 47 -39 52 -132 161 -162 189 -23 23
-46 43 -153 136 -52 45 -193 145 -204 145 -6 0 -11 5 -11 10 0 6 -7 10 -15 10
-8 0 -15 4 -15 10 0 5 -3 9 -7 8 -5 -1 -68 28 -141 64 -73 37 -136 67 -140 67
-4 1 -54 17 -112 35 -100 32 -127 40 -194 52 -16 3 -33 7 -37 10 -5 2 -31 7
-60 10 -29 3 -60 9 -70 15 -13 7 -19 6 -19 -1 0 -6 -5 -8 -12 -4 -7 4 -37 9
-68 11 -82 5 -191 8 -193 6z"/>
<path d="M821 3205 c-24 -14 -67 -40 -94 -58 -28 -18 -54 -31 -59 -29 -5 1 -7
-2 -4 -7 4 -5 -4 -17 -16 -25 -42 -29 -100 -81 -172 -153 -74 -74 -82 -83
-130 -143 -15 -19 -33 -34 -38 -32 -5 1 -7 -2 -4 -7 4 -5 -11 -36 -32 -69 -35
-55 -87 -156 -125 -242 -27 -61 -67 -180 -61 -180 4 0 0 -7 -7 -17 -8 -9 -13
-18 -11 -20 2 -2 -2 -27 -7 -56 -6 -28 -14 -68 -18 -87 -10 -54 -11 -422 -2
-450 5 -14 11 -41 13 -60 3 -19 5 -35 6 -35 1 0 8 -30 13 -62 1 -10 6 -24 10
-30 5 -7 10 -22 13 -33 2 -11 6 -28 8 -37 12 -52 104 -255 119 -261 4 -2 7 -9
7 -17 0 -7 7 -18 15 -25 8 -7 12 -16 9 -21 -3 -5 0 -9 5 -9 6 0 11 -7 11 -15
0 -8 4 -15 8 -15 5 0 15 -12 23 -27 8 -16 19 -32 25 -38 38 -36 112 -133 106
-139 -4 -4 0 -6 8 -4 8 2 14 -3 12 -9 -1 -7 2 -13 7 -13 5 0 38 -28 74 -63 36
-34 72 -66 80 -72 9 -5 63 -43 121 -83 60 -41 118 -74 134 -75 l27 -2 0 162
c0 157 -1 163 -23 180 -13 10 -35 28 -50 40 -15 13 -31 23 -35 23 -5 0 -5 5
-1 12 4 6 3 8 -3 5 -19 -12 -253 257 -253 291 0 5 -4 12 -8 14 -11 4 -92 166
-97 193 -2 11 -4 20 -5 20 -1 0 -3 7 -5 15 -2 8 -10 32 -19 53 -9 20 -14 37
-11 37 3 0 1 8 -4 18 -14 26 -24 73 -35 165 -3 27 -8 53 -11 58 -4 5 -2 9 4 9
5 0 7 11 3 28 -6 23 -7 98 -2 112 1 3 3 25 5 50 7 78 12 114 26 160 14 51 13
45 23 88 4 17 11 32 14 32 4 0 8 12 9 26 0 15 6 30 13 34 6 4 11 10 11 14 -1
3 -1 7 0 9 0 1 2 9 4 17 7 33 47 110 56 110 6 0 8 4 4 9 -3 5 2 17 11 25 8 9
13 16 9 16 -3 0 -1 6 5 13 6 6 21 26 33 43 81 114 251 285 294 297 5 1 17 12
28 25 18 21 21 36 19 118 -1 51 -5 98 -8 103 -3 5 0 12 6 14 7 3 8 6 3 6 -6 1
-10 17 -9 38 4 70 -8 76 -75 38z"/>
<path d="M1713 3166 c-4 -11 -6 -25 -5 -30 2 -4 -2 -14 -8 -21 -6 -7 -7 -16
-3 -18 5 -3 9 -43 8 -89 l0 -83 -31 -1 c-17 0 -36 -4 -43 -8 -6 -4 -11 -2 -11
4 0 6 -5 8 -12 4 -6 -4 -26 -9 -42 -10 -17 -1 -43 -5 -58 -8 -16 -3 -40 -9
-55 -12 -16 -3 -32 -7 -38 -8 -5 -1 -15 -5 -21 -8 -6 -4 -21 -9 -35 -11 -72
-14 -235 -98 -337 -174 -100 -74 -195 -173 -255 -264 -17 -26 -34 -46 -39 -43
-4 3 -5 -1 -2 -9 3 -8 -2 -22 -11 -31 -9 -9 -14 -16 -10 -16 3 0 -2 -12 -13
-27 -16 -24 -29 -49 -37 -73 -1 -3 -7 -18 -14 -35 -7 -16 -15 -39 -17 -50 -10
-42 -13 -50 -14 -50 -2 0 -6 -19 -16 -75 -12 -72 -6 -322 9 -360 3 -8 8 -28
11 -45 3 -16 10 -48 17 -70 7 -22 12 -43 11 -47 -1 -5 2 -8 8 -8 6 0 9 -3 8
-7 -2 -10 12 -42 31 -72 8 -13 16 -30 17 -37 1 -8 9 -20 17 -28 7 -8 20 -28
27 -45 7 -17 17 -31 23 -31 6 0 8 -3 4 -6 -14 -15 200 -227 272 -270 17 -10
31 -22 31 -27 0 -4 4 -6 9 -2 6 3 14 -2 19 -11 5 -9 13 -15 18 -15 5 1 10 -3
10 -9 1 -5 3 -11 4 -12 7 -8 5 -126 -3 -142 -5 -10 -5 -16 0 -13 4 3 8 -138 9
-313 0 -225 -3 -317 -10 -313 -6 4 -5 -1 2 -10 8 -9 11 -21 7 -27 -3 -5 -1
-10 5 -10 6 0 9 -4 6 -8 -3 -5 20 -15 52 -22 68 -16 80 -18 112 -24 14 -2 25
-5 25 -6 0 -1 15 -3 33 -5 19 -2 40 -6 47 -9 8 -3 18 1 22 7 5 7 9 237 9 519
-1 339 2 504 9 500 5 -3 5 1 -2 9 -6 8 -10 27 -9 41 3 21 -3 29 -25 38 -15 7
-30 10 -33 9 -2 -2 -12 4 -22 13 -11 9 -22 17 -26 17 -18 2 -98 46 -98 53 0 4
-6 8 -12 8 -12 0 -26 11 -95 71 -10 9 -34 35 -53 59 -19 23 -39 47 -45 54 -25
30 -109 186 -100 186 3 0 -1 13 -10 30 -8 16 -15 32 -15 35 0 3 0 6 -1 8 -8
28 -21 125 -22 172 -2 114 50 303 103 377 11 15 20 31 20 35 0 4 16 26 35 47
19 22 35 44 35 48 0 5 5 6 10 3 6 -3 10 -1 10 6 0 14 70 80 113 106 15 10 27
21 27 26 0 4 5 5 10 2 6 -3 10 -2 10 3 0 13 50 33 62 26 6 -4 8 -2 5 3 -6 10
50 40 66 35 4 -1 7 3 7 9 0 6 7 9 15 6 8 -4 17 -2 20 4 4 5 11 7 16 4 5 -4 9
-1 9 5 0 6 6 10 13 9 6 -1 23 1 37 4 14 4 41 9 60 11 19 3 35 5 35 6 0 1 20 3
45 4 l45 2 -1 -106 c-2 -130 0 -120 -26 -120 -42 1 -83 -5 -89 -12 -3 -5 -17
-9 -32 -10 -15 -1 -27 -5 -27 -9 0 -7 -49 -27 -62 -25 -9 2 -51 -54 -45 -61 3
-3 2 -16 -3 -29 -5 -13 -6 -24 -2 -24 4 0 7 -22 7 -50 0 -27 -3 -50 -8 -50 -4
0 -5 -5 -1 -11 9 -15 11 -229 2 -229 -4 0 -4 -10 0 -22 4 -13 7 -122 7 -242
l-1 -219 27 -29 c16 -15 35 -28 44 -28 8 0 15 -4 15 -10 0 -5 7 -7 15 -4 8 4
15 2 15 -2 0 -5 12 -9 28 -10 41 -2 126 -15 132 -21 3 -2 5 -289 6 -636 1
-348 2 -640 3 -650 1 -16 12 -17 119 -15 153 3 182 10 183 46 0 15 1 111 1
214 1 121 5 185 11 181 6 -4 7 -1 1 8 -8 13 -14 652 -5 644 5 -6 185 89 221
116 56 44 162 152 194 201 18 26 36 45 40 40 4 -4 7 -2 6 3 -1 6 -1 13 0 18 1
4 3 10 5 15 1 4 12 30 25 57 13 28 23 56 23 63 0 6 3 12 7 12 4 0 7 6 8 13 1
15 9 53 18 92 10 45 5 285 -7 285 -3 0 -6 6 -7 13 0 6 -3 19 -5 27 -2 8 -7 29
-12 45 -4 17 -10 35 -14 40 -3 6 -6 12 -6 15 -4 28 -116 203 -149 234 -12 10
-20 23 -18 30 2 6 0 8 -4 4 -4 -4 -20 6 -36 22 -15 17 -31 30 -34 30 -2 0 -28
17 -57 38 -70 51 -200 112 -273 127 -13 3 -36 8 -51 11 -31 6 -85 14 -123 17
l-25 2 0 110 0 110 65 -2 c62 -2 135 -9 135 -13 0 -1 11 -4 25 -5 27 -4 65
-13 65 -15 0 -1 9 -3 19 -5 36 -7 166 -60 166 -67 0 -5 9 -8 20 -8 11 0 20 -5
20 -11 0 -5 3 -8 8 -5 19 12 271 -183 265 -206 -2 -4 4 -8 12 -8 8 0 15 -4 15
-9 0 -5 6 -16 13 -23 29 -30 89 -108 83 -108 -3 0 4 -11 16 -25 12 -14 23 -33
24 -42 2 -9 7 -19 12 -22 7 -5 19 -27 27 -51 1 -3 7 -18 14 -35 52 -125 69
-230 65 -408 -1 -67 -5 -133 -8 -147 -3 -14 -8 -34 -10 -45 -12 -51 -46 -158
-54 -168 -5 -7 -15 -28 -22 -47 -22 -55 -86 -151 -95 -143 -4 5 -5 2 -1 -5 5
-7 -21 -40 -71 -90 -91 -89 -143 -135 -143 -126 0 4 -8 -2 -17 -13 -10 -11
-43 -34 -74 -53 -31 -18 -56 -38 -57 -44 -1 -6 -3 -195 -5 -421 -1 -315 1
-413 10 -423 18 -18 44 -18 98 2 11 5 34 12 50 18 39 13 60 22 115 47 l46 21
-1 182 c0 111 4 186 10 191 7 4 7 10 0 15 -11 8 -15 102 -4 102 4 0 5 12 1 28
-11 44 -1 112 16 112 4 0 20 11 35 25 15 14 27 23 27 19 0 -4 9 5 21 20 11 14
26 23 32 19 7 -3 9 -3 5 1 -9 10 64 85 76 78 5 -3 6 0 2 6 -3 6 4 18 16 26 12
9 19 16 15 16 -4 0 -2 6 5 14 7 8 17 11 22 8 5 -3 6 -1 3 5 -4 6 7 25 23 43
16 18 32 42 36 52 3 10 10 18 15 18 5 0 9 5 9 11 0 6 8 23 18 37 26 37 92 162
86 162 -2 0 2 13 10 29 9 16 12 31 9 35 -4 3 -2 6 4 6 5 0 10 6 10 13 1 6 9
41 18 77 10 36 19 74 20 85 1 11 3 20 4 20 5 0 14 137 14 212 0 58 3 80 11 76
7 -4 6 -1 -1 8 -7 8 -14 40 -17 70 -3 30 -10 76 -16 103 -5 27 -9 54 -8 60 1
6 -3 21 -10 34 -7 12 -10 22 -6 22 3 0 1 7 -6 15 -6 8 -9 19 -5 25 3 5 1 10
-4 10 -6 0 -11 6 -11 13 0 21 -73 166 -125 247 -58 91 -141 198 -172 223 -13
10 -21 23 -17 28 3 5 1 8 -4 7 -5 -2 -37 22 -72 52 -34 30 -70 59 -79 64 -9 5
-18 13 -21 17 -8 11 -162 104 -197 118 -18 7 -30 18 -26 24 3 6 1 7 -6 3 -6
-4 -19 -2 -28 6 -9 7 -17 12 -17 10 -1 -2 -14 2 -31 8 -16 7 -41 14 -54 16
-14 3 -29 8 -35 12 -6 3 -20 8 -31 9 -11 2 -22 8 -23 13 -2 6 -8 8 -12 5 -5
-3 -28 -1 -52 5 -24 6 -59 13 -78 16 -55 9 -75 12 -75 14 0 1 -41 3 -92 5 -87
3 -93 1 -100 -19z m77 -806 c0 -4 10 -6 23 -5 19 2 73 -13 117 -32 8 -3 17 -7
20 -8 28 -8 100 -50 100 -58 0 -6 3 -7 6 -4 12 11 140 -131 135 -148 -2 -4 1
-11 6 -14 11 -7 42 -83 51 -121 6 -27 7 -190 1 -227 -2 -13 -7 -23 -12 -23 -4
0 -5 -4 -2 -10 3 -5 0 -20 -7 -32 -6 -13 -13 -29 -14 -36 -7 -41 -125 -182
-153 -182 -6 0 -11 -4 -11 -8 0 -13 -129 -74 -140 -67 -6 4 -10 1 -10 -5 0 -7
-6 -10 -14 -7 -7 3 -19 0 -25 -6 -6 -6 -11 -7 -11 -3 0 5 -6 4 -12 -2 -7 -5
-31 -12 -53 -14 l-40 -3 -1 500 c-1 275 1 505 3 512 5 12 43 14 43 3z"/>
</g>
</svg>
